<?xml version="1.0" standalone="no"?><!DOCTYPE svg PUBLIC "-//W3C//DTD SVG 1.1//EN" "http://www.w3.org/Graphics/SVG/1.1/DTD/svg11.dtd"><svg t="1555931962612" class="icon" style="" viewBox="0 0 1024 1024" version="1.1" xmlns="http://www.w3.org/2000/svg" p-id="6238" xmlns:xlink="http://www.w3.org/1999/xlink" width="200" height="200"><defs><style type="text/css"></style></defs><path d="M274.028169 295.661972m-209.126761 0a209.126761 209.126761 0 1 0 418.253522 0 209.126761 209.126761 0 1 0-418.253522 0Z" fill="#F7DD01" p-id="6239"></path><path d="M274.028169 522.816901C148.552113 522.816901 46.873239 421.138028 46.873239 295.661972S148.552113 68.507042 274.028169 68.507042 501.183099 170.185915 501.183099 295.661972 399.504225 522.816901 274.028169 522.816901z m0-418.253521C168.743662 104.56338 82.929577 190.377465 82.929577 295.661972S168.743662 486.760563 274.028169 486.760563 465.126761 400.946479 465.126761 295.661972 379.312676 104.56338 274.028169 104.56338z" fill="#F7A401" p-id="6240"></path><path d="M274.028169 86.535211h7.211268c10.095775 0 18.028169 7.932394 18.028169 18.028169v49.03662c0 10.095775-7.932394 18.028169-18.028169 18.028169h-7.211268c-10.095775 0-18.028169-7.932394-18.028169-18.028169v-49.03662c0-10.095775 8.653521-18.028169 18.028169-18.028169z m151.43662 59.853521l4.32676 4.326761c7.211268 7.211268 7.211268 18.749296 0 25.239437l-34.614084 34.614084c-7.211268 7.211268-18.749296 7.211268-25.239437 0l-4.32676-4.32676c-7.211268-7.211268-7.211268-18.749296 0-25.239437l34.614084-34.614085c7.211268-7.211268 18.749296-7.211268 25.239437 0zM490.366197 295.661972v7.211267c0 10.095775-7.932394 18.028169-18.028169 18.028169h-49.03662c-10.095775 0-18.028169-7.932394-18.028169-18.028169v-7.211267c0-10.095775 7.932394-18.028169 18.028169-18.028169h49.03662c10.095775 0 18.028169 8.653521 18.028169 18.028169z m-59.853521 151.43662l-5.047887 5.047887c-7.211268 7.211268-18.749296 7.211268-25.239437 0l-34.614084-34.614085c-7.211268-7.211268-7.211268-18.749296 0-25.239436l4.32676-4.326761c7.211268-7.211268 18.749296-7.211268 25.239437 0l34.614084 34.614085c7.932394 6.490141 7.932394 18.028169 0.721127 24.51831zM281.239437 512h-7.211268c-10.095775 0-18.028169-7.932394-18.028169-18.028169v-49.03662c0-10.095775 7.932394-18.028169 18.028169-18.028169h7.211268c10.095775 0 18.028169 7.932394 18.028169 18.028169v49.03662c0 10.095775-8.653521 18.028169-18.028169 18.028169zM129.802817 452.146479l-5.047887-5.047887c-7.211268-7.211268-7.211268-18.749296 0-25.239437l34.614084-34.614085c7.211268-7.211268 18.749296-7.211268 25.239437 0l4.32676 4.326761c7.211268 7.211268 7.211268 18.749296 0 25.239437l-34.614084 34.614084c-6.490141 7.932394-18.028169 7.932394-24.51831 0.721127zM64.901408 302.873239v-7.211267c0-10.095775 7.932394-18.028169 18.028169-18.028169h49.03662c10.095775 0 18.028169 7.932394 18.028169 18.028169v7.211267c0 10.095775-7.932394 18.028169-18.028169 18.028169H82.929577C72.833803 320.901408 64.901408 312.247887 64.901408 302.873239z m59.853522-151.436619l5.047887-5.047888c7.211268-7.211268 18.749296-7.211268 25.239437 0l34.614084 34.614085c7.211268 7.211268 7.211268 18.749296 0 25.239437l-4.326761 4.32676c-7.211268 7.211268-18.749296 7.211268-25.239436 0l-34.614085-34.614084c-7.932394-6.490141-7.932394-18.028169-0.721126-24.51831z" fill="#F7A401" p-id="6241"></path><path d="M384.360563 1016.788732l330.997183-9.374647c18.028169-0.721127 32.450704-13.701408 34.614085-31.729578l32.450704-271.143662L814.873239 490.366197H317.295775l33.171831 214.895775 33.892957 311.52676z" fill="#1FCEEA" p-id="6242"></path><path d="M393.735211 1024c-18.028169 0-33.171831-13.701408-36.056338-31.008451L266.816901 322.343662V317.295775c0-20.191549 15.864789-36.056338 36.056338-36.056338l505.50986 3.605633h5.047887c9.374648 1.442254 18.028169 6.490141 23.797183 13.701409 5.769014 7.932394 8.653521 17.307042 7.211268 26.68169l-91.583099 663.43662c-2.16338 17.307042-17.307042 31.008451-35.335211 31.00845l-323.785916 4.326761zM302.152113 317.295775l90.861972 670.647887 323.064788-3.605634 91.583099-663.43662-505.509859-3.605633z" fill="#373737" p-id="6243"></path><path d="M331.71831 638.197183h454.309859v36.056338H331.71831z" fill="#373737" p-id="6244"></path><path d="M443.492958 800.450704h-42.546479c-5.769014 0-10.816901-5.047887-10.816902-10.816901s5.047887-10.816901 10.816902-10.816902h42.546479c5.769014 0 10.816901 5.047887 10.816901 10.816902s-5.047887 10.816901-10.816901 10.816901zM731.943662 800.450704h-42.546479c-5.769014 0-10.816901-5.047887-10.816901-10.816901s5.047887-10.816901 10.816901-10.816902h42.546479c5.769014 0 10.816901 5.047887 10.816901 10.816902s-5.047887 10.816901-10.816901 10.816901z" fill="#FF6376" p-id="6245"></path><path d="M540.84507 807.661972c-20.191549 0-36.056338-17.307042-36.056338-38.940845 0-6.490141 5.047887-11.538028 10.816902-11.538028s10.816901 5.047887 10.816901 11.538028c0 7.932394 6.490141 15.143662 13.701409 15.143662s13.701408-6.490141 13.701408-15.143662c0-6.490141 5.047887-11.538028 10.816902-11.538028s10.816901 5.047887 10.816901 11.538028c1.442254 21.633803-14.422535 38.940845-34.614085 38.940845z" fill="#3F4963" p-id="6246"></path><path d="M584.112676 807.661972c-20.191549 0-36.056338-17.307042-36.056338-38.940845 0-6.490141 5.047887-11.538028 10.816901-11.538028s10.816901 5.047887 10.816902 11.538028c0 7.932394 6.490141 15.143662 13.701408 15.143662s13.701408-6.490141 13.701409-15.143662c0-6.490141 5.047887-11.538028 10.816901-11.538028s10.816901 5.047887 10.816902 11.538028c1.442254 21.633803-14.422535 38.940845-34.614085 38.940845zM725.453521 771.605634c-5.769014 0-10.095775-4.326761-10.095775-9.374648 0-4.326761-3.605634-7.932394-8.653521-7.932394-4.326761 0-8.653521 3.605634-8.653521 7.932394 0 5.047887-4.326761 9.374648-10.095774 9.374648s-10.095775-4.326761-10.095775-9.374648c0-14.422535 12.980282-26.68169 28.84507-26.68169s28.84507 12.259155 28.845071 26.68169c0 5.047887-4.326761 9.374648-10.095775 9.374648z" fill="#3F4963" p-id="6247"></path><path d="M602.861972 757.183099c-5.047887 0-10.095775 5.047887-10.095775 11.538028 0 7.932394-5.769014 15.143662-12.259155 15.143662-6.490141 0-12.259155-6.490141-12.259155-15.143662 0-6.490141-4.326761-11.538028-10.095774-11.538028s-10.095775 5.047887-10.095775 11.538028c0 7.932394-5.769014 15.143662-12.259155 15.143662-6.490141 0-12.259155-6.490141-12.259155-15.143662 0-6.490141-4.326761-11.538028-10.095774-11.538028-5.047887 0-10.095775 5.047887-10.095775 11.538028 0 21.633803 14.422535 38.940845 31.729577 38.940845 8.653521 0 16.585915-4.326761 22.35493-10.816902 5.769014 6.490141 13.701408 10.816901 22.354929 10.816902 17.307042 0 31.729577-17.307042 31.729578-38.940845 1.442254-6.490141-2.884507-11.538028-8.653521-11.538028z" fill="#262626" p-id="6248"></path><path d="M421.859155 735.549296c-10.095775 0-18.028169 7.932394-18.028169 18.028169s7.932394 18.028169 18.028169 18.028169 18.028169-7.932394 18.028169-18.028169-7.932394-18.028169-18.028169-18.028169z" fill="#1E1E1E" p-id="6249"></path><path d="M706.704225 735.549296c-15.864789 0-28.84507 12.259155-28.84507 26.68169 0 5.047887 4.326761 9.374648 10.095775 9.374648 5.769014 0 10.095775-4.326761 10.095774-9.374648 0-4.326761 3.605634-7.932394 8.653521-7.932394s8.653521 3.605634 8.653521 7.932394c0 5.047887 4.326761 9.374648 10.095775 9.374648s10.095775-4.326761 10.095775-9.374648c0-14.422535-12.980282-26.68169-28.845071-26.68169z" fill="#333333" p-id="6250"></path><path d="M591.323944 659.830986h-3.605634c-10.095775-2.16338-15.864789-11.538028-14.422535-20.912676l88.698591-447.819718c0.721127-5.047887 3.605634-9.374648 7.932395-11.538029L949.002817 7.211268c8.653521-5.047887 19.470423-2.884507 24.51831 5.769014 5.047887 8.653521 2.884507 19.470423-5.769014 24.51831L696.608451 204.8 609.352113 645.408451c-2.16338 8.653521-9.374648 14.422535-18.028169 14.422535z" fill="#373737" p-id="6251"></path><path d="M508.394366 349.746479m-18.028169 0a18.028169 18.028169 0 1 0 36.056338 0 18.028169 18.028169 0 1 0-36.056338 0Z" fill="#373737" p-id="6252"></path><path d="M361.284507 479.549296c-7.932394 0-15.143662-5.047887-17.307042-12.980282-2.16338-7.211268-19.470423-69.949296 2.16338-106.005634 15.143662-24.51831 51.921127-25.239437 94.467606-25.239436H454.309859c10.095775 0 18.028169 7.932394 18.028169 18.028169s-7.932394 18.028169-18.028169 18.028169h-14.422535c-22.35493 0-59.132394 0.721127-63.459155 7.932394-10.816901 17.307042-3.605634 59.132394 2.16338 77.160563 2.884507 9.374648-2.884507 19.470423-12.259155 22.35493-1.442254 0.721127-3.605634 0.721127-5.047887 0.721127z" fill="#373737" p-id="6253"></path></svg>